<svg width="17" height="16" viewBox="0 0 17 16" fill="none" xmlns="http://www.w3.org/2000/svg">
<path d="M14.0938 0H2.09375C0.96875 0 0.09375 0.90625 0.09375 2V11C0.09375 12.125 0.96875 13 2.09375 13H5.09375V15.625C5.09375 15.875 5.25 16 5.46875 16C5.53125 16 5.59375 16 5.6875 15.9375L9.59375 13H14.0938C15.1875 13 16.0938 12.125 16.0938 11V2C16.0938 0.90625 15.1875 0 14.0938 0ZM14.5938 11C14.5938 11.2812 14.3438 11.5 14.0938 11.5H9.09375L8.6875 11.8125L6.59375 13.375V11.5H2.09375C1.8125 11.5 1.59375 11.2812 1.59375 11V2C1.59375 1.75 1.8125 1.5 2.09375 1.5H14.0938C14.3438 1.5 14.5938 1.75 14.5938 2V11Z" fill="#898E9E"/>
</svg>
