<svg width="20" height="18" viewBox="0 0 20 18" fill="none" xmlns="http://www.w3.org/2000/svg">
<path d="M8.62067 14.5858V10.325C8.62067 9.39294 9.3899 8.62067 10.3183 8.62067H17.9575C18.9124 8.62067 19.6552 9.39294 19.6552 10.325V14.5858C19.6552 15.5445 18.9124 16.2902 17.9575 16.2902V17.7548C17.9575 17.9679 17.7188 18.0744 17.5597 17.9413L15.3581 16.2902H10.3183C9.3899 16.2902 8.62067 15.5445 8.62067 14.5858Z" fill="white"/>
<path d="M17.4319 10.2267V4.35049C17.4319 2.60861 15.9833 1.1888 14.244 1.1888H4.37666C2.59197 1.1888 1.1888 2.61685 1.1888 4.35049V10.2267C1.1888 11.7241 2.18916 12.9411 3.56546 13.2886V14.5972C3.56546 15.605 4.70474 16.0664 5.42824 15.4975L8.28306 13.3884H14.244C15.975 13.3884 17.4319 12.0135 17.4319 10.2267Z" fill="white" stroke="#D9E5FC" stroke-width="1.6224"/>
</svg>
