<svg width="21" height="20" viewBox="0 0 21 20" fill="none" xmlns="http://www.w3.org/2000/svg">
<path d="M10.8984 12.7266C10.5547 12.7266 10.2969 12.4688 10.2969 12.125V10.75C10.2969 10.4277 10.5547 10.1484 10.8984 10.1484C11.2207 10.1484 11.5 10.4277 11.5 10.75V12.125C11.5 12.4688 11.2207 12.7266 10.8984 12.7266ZM15.7109 9.03125V13.8438C15.7109 14.4238 15.2383 14.875 14.6797 14.875H7.11719C6.53711 14.875 6.08594 14.4238 6.08594 13.8438V9.03125C6.08594 8.47266 6.53711 8 7.11719 8H7.80469V6.96875C7.80469 5.27148 9.17969 3.875 10.8984 3.875C12.6172 3.89648 13.9922 5.29297 13.9922 7.01172V8H14.6797C15.2383 8 15.7109 8.47266 15.7109 9.03125ZM8.83594 8H12.9609V6.96875C12.9609 5.85156 12.0156 4.90625 10.8984 4.90625C9.75977 4.90625 8.83594 5.85156 8.83594 6.96875V8ZM14.6797 9.03125H7.11719V13.8438H14.6797V9.03125Z" fill="#EBECEF"/>
</svg>
