<svg width="16" height="14" viewBox="0 0 16 14" fill="none" xmlns="http://www.w3.org/2000/svg">
<path d="M15.4531 2.60938C15.6641 2.60938 15.875 2.43359 15.875 2.1875V1.0625C15.875 0.851562 15.6641 0.640625 15.4531 0.640625H0.546875C0.300781 0.640625 0.125 0.851562 0.125 1.0625V2.1875C0.125 2.43359 0.300781 2.60938 0.546875 2.60938H15.4531ZM15.4531 8.23438C15.6641 8.23438 15.875 8.05859 15.875 7.8125V6.6875C15.875 6.47656 15.6641 6.26562 15.4531 6.26562H0.546875C0.300781 6.26562 0.125 6.47656 0.125 6.6875V7.8125C0.125 8.05859 0.300781 8.23438 0.546875 8.23438H15.4531ZM15.4531 13.8594C15.6641 13.8594 15.875 13.6836 15.875 13.4375V12.3125C15.875 12.1016 15.6641 11.8906 15.4531 11.8906H0.546875C0.300781 11.8906 0.125 12.1016 0.125 12.3125V13.4375C0.125 13.6836 0.300781 13.8594 0.546875 13.8594H15.4531Z" fill="#292B32"/>
</svg>
