<svg width="16" height="19" viewBox="0 0 16 19" fill="none" xmlns="http://www.w3.org/2000/svg">
<path fill-rule="evenodd" clip-rule="evenodd" d="M14.2857 6.85714C15.2143 6.85714 16 7.64286 16 8.57143V16.5714C16 17.5357 15.2143 18.2857 14.2857 18.2857H1.71429C0.75 18.2857 0 17.5357 0 16.5714V8.57143C0 7.64286 0.75 6.85714 1.71429 6.85714H2.85714V5.14286C2.85714 2.32143 5.14286 0 8 0C10.8571 0.0357143 13.1429 2.35714 13.1429 5.21429V6.85714H14.2857ZM4.57143 5.14286V6.85714H11.4286V5.14286C11.4286 3.28571 9.85714 1.71429 8 1.71429C6.10714 1.71429 4.57143 3.28571 4.57143 5.14286ZM8 14.7143C8.53571 14.7143 9 14.2857 9 13.7143V11.4286C9 10.8929 8.53571 10.4286 8 10.4286C7.42857 10.4286 7 10.8929 7 11.4286V13.7143C7 14.2857 7.42857 14.7143 8 14.7143Z" fill="white"/>
</svg>
