<svg width="25" height="22" viewBox="0 0 25 22" fill="none" xmlns="http://www.w3.org/2000/svg">
<path d="M11 17.2679V11.3623C11 10.0704 11.976 9 13.1538 9H22.8462C24.0577 9 25 10.0704 25 11.3623V17.2679C25 18.5967 24.0577 19.6302 22.8462 19.6302V21.6602C22.8462 21.9555 22.5433 22.1032 22.3413 21.9186L19.5481 19.6302H13.1538C11.976 19.6302 11 18.5967 11 17.2679Z" fill="white"/>
<path d="M22.8112 13.4479V5.27082C22.8112 3.03871 20.9795 1.1888 18.7489 1.1888H5.25109C2.9615 1.1888 1.1888 3.04703 1.1888 5.27082V13.4479C1.1888 15.4522 2.56125 17.0833 4.43989 17.4518V19.5296C4.43989 20.6297 5.68963 21.1905 6.51393 20.5256L10.5002 17.5299H18.7489C20.9712 17.5299 22.8112 15.7394 22.8112 13.4479Z" fill="white" stroke="#D9E5FC" stroke-width="1.6224"/>
<path d="M12.5 6.5C12.9255 6.5 13.3335 6.66318 13.6343 6.95365C13.9352 7.24411 14.1042 7.63807 14.1042 8.04885C14.1042 8.45963 13.9352 8.85359 13.6343 9.14405C13.3335 9.43452 12.9255 9.5977 12.5 9.5977C12.0745 9.5977 11.6665 9.43452 11.3657 9.14405C11.0648 8.85359 10.8958 8.45963 10.8958 8.04885C10.8958 7.63807 11.0648 7.24411 11.3657 6.95365C11.6665 6.66318 12.0745 6.5 12.5 6.5ZM9.29167 7.60632C9.54833 7.60632 9.78667 7.6727 9.99292 7.79218C9.92417 8.425 10.1167 9.05339 10.5108 9.5446C10.2817 9.96943 9.82333 10.2615 9.29167 10.2615C8.92699 10.2615 8.57726 10.1216 8.31939 9.87265C8.06153 9.62368 7.91667 9.28601 7.91667 8.93391C7.91667 8.58181 8.06153 8.24413 8.31939 7.99516C8.57726 7.74619 8.92699 7.60632 9.29167 7.60632ZM15.7083 7.60632C16.073 7.60632 16.4227 7.74619 16.6806 7.99516C16.9385 8.24413 17.0833 8.58181 17.0833 8.93391C17.0833 9.28601 16.9385 9.62368 16.6806 9.87265C16.4227 10.1216 16.073 10.2615 15.7083 10.2615C15.1767 10.2615 14.7183 9.96943 14.4892 9.5446C14.8833 9.05339 15.0758 8.425 15.0071 7.79218C15.2133 7.6727 15.4517 7.60632 15.7083 7.60632ZM9.52083 12.1422C9.52083 11.2262 10.8546 10.4828 12.5 10.4828C14.1454 10.4828 15.4792 11.2262 15.4792 12.1422V12.9167H9.52083V12.1422ZM7 12.9167V12.2529C7 11.6378 7.86625 11.12 9.03958 10.9695C8.76917 11.2705 8.60417 11.6864 8.60417 12.1422V12.9167H7ZM18 12.9167H16.3958V12.1422C16.3958 11.6864 16.2308 11.2705 15.9604 10.9695C17.1337 11.12 18 11.6378 18 12.2529V12.9167Z" fill="#D9E5FC"/>
</svg>
