<svg width="22" height="22" viewBox="0 0 22 22" fill="none" xmlns="http://www.w3.org/2000/svg">
<path d="M18.7814 16.3104C19.0627 16.6229 19.0627 17.0917 18.7502 17.3729L17.8752 18.2479C17.5939 18.5604 17.1252 18.5604 16.8127 18.2479L13.7189 15.1542C13.5627 14.9979 13.5002 14.8104 13.5002 14.6229V14.0917C12.3752 14.9667 11.0002 15.4667 9.50016 15.4667C5.90641 15.4667 3.00016 12.5604 3.00016 8.96667C3.00016 5.40417 5.90641 2.46667 9.50016 2.46667C13.0627 2.46667 16.0002 5.40417 16.0002 8.96667C16.0002 10.4979 15.4689 11.8729 14.6252 12.9667H15.1252C15.3127 12.9667 15.5002 13.0604 15.6564 13.1854L18.7814 16.3104ZM9.50016 12.9667C11.6877 12.9667 13.5002 11.1854 13.5002 8.96667C13.5002 6.77917 11.6877 4.96667 9.50016 4.96667C7.28141 4.96667 5.50016 6.77917 5.50016 8.96667C5.50016 11.1854 7.28141 12.9667 9.50016 12.9667Z" fill="#292B32"/>
</svg>
